<?xml version="1.0" encoding="UTF-8" standalone="no"?>
<!-- Created with Inkscape (http://www.inkscape.org/) -->

<svg
   xmlns:dc="http://purl.org/dc/elements/1.1/"
   xmlns:cc="http://creativecommons.org/ns#"
   xmlns:rdf="http://www.w3.org/1999/02/22-rdf-syntax-ns#"
   xmlns:svg="http://www.w3.org/2000/svg"
   xmlns="http://www.w3.org/2000/svg"
   xmlns:sodipodi="http://sodipodi.sourceforge.net/DTD/sodipodi-0.dtd"
   xmlns:inkscape="http://www.inkscape.org/namespaces/inkscape"
   width="822.99579"
   height="499.03458"
   viewBox="0 0 822.99579 499.03458"
   version="1.1"
   id="svg8"
   inkscape:version="0.92.3 (2405546, 2018-03-11)"
   sodipodi:docname="ally-logo-light-blue.svg">
  <defs
     id="defs2">
    <clipPath
       clipPathUnits="userSpaceOnUse"
       id="clipPath165">
      <path
         d="M 0,0 H 1280 V 800 H 0 Z"
         id="path163"
         inkscape:connector-curvature="0" />
    </clipPath>
  </defs>
  <sodipodi:namedview
     id="base"
     pagecolor="#ffffff"
     bordercolor="#666666"
     borderopacity="1.0"
     inkscape:pageopacity="0.0"
     inkscape:pageshadow="2"
     inkscape:zoom="0.7"
     inkscape:cx="158.57543"
     inkscape:cy="286.54945"
     inkscape:document-units="px"
     inkscape:current-layer="layer1"
     showgrid="true"
     units="px"
     objecttolerance="9"
     inkscape:snap-grids="false"
     inkscape:window-width="1920"
     inkscape:window-height="982"
     inkscape:window-x="0"
     inkscape:window-y="1107"
     inkscape:window-maximized="1"
     fit-margin-top="10"
     fit-margin-left="10"
     fit-margin-right="10"
     fit-margin-bottom="10">
    <inkscape:grid
       type="xygrid"
       id="grid10"
       originx="-90.162968"
       originy="-297.1199" />
  </sodipodi:namedview>
  <metadata
     id="metadata5">
    <rdf:RDF>
      <cc:Work
         rdf:about="">
        <dc:format>image/svg+xml</dc:format>
        <dc:type
           rdf:resource="http://purl.org/dc/dcmitype/StillImage" />
        <dc:title></dc:title>
      </cc:Work>
    </rdf:RDF>
  </metadata>
  <g
     inkscape:label="Layer 1"
     inkscape:groupmode="layer"
     id="layer1"
     transform="translate(-90.162968,-326.36517)">
    <path
       d="m 427.82831,814.0647 h 49.89664 V 336.36517 h -49.89664 z"
       style="fill:#00c3db;fill-opacity:1;fill-rule:nonzero;stroke:none;stroke-width:0.71615463"
       id="path155"
       inkscape:connector-curvature="0" />
    <path
       d="m 525.59273,814.0647 h 49.89665 V 336.36517 h -49.89665 z"
       style="fill:#00c3db;fill-opacity:1;fill-rule:nonzero;stroke:none;stroke-width:0.71615463"
       id="path157"
       inkscape:connector-curvature="0" />
    <g
       id="g167"
       transform="matrix(0.7161547,0,0,-0.7161547,240.0645,422.55939)"
       style="fill:#00c3db;fill-opacity:1">
      <path
         d="m 0,0 c -80.072,0 -150.036,-48.363 -179.909,-119.526 l 66.778,-21.046 c 20.499,42.49 63.86,70.899 113.131,70.899 69.299,0 125.677,-56.379 125.677,-125.679 v -30.926 c -24.621,38.815 -77.46,66.303 -119.913,68.296 -0.069,0.002 -0.132,0.004 -0.201,0.007 -1.871,0.083 -3.727,0.135 -5.563,0.135 -107.721,0 -195.351,-87.635 -195.351,-195.35 0,-107.717 87.63,-195.351 195.351,-195.351 47.31,0 101.7,29.081 125.677,69.67 v -67.806 h 69.674 v 351.325 C 195.351,-87.635 107.713,0 0,0 m 1.898,-478.871 c -70.345,0 -127.576,56.38 -127.576,125.681 0,69.299 57.231,125.677 127.576,125.677 70.345,0 127.576,-56.378 127.576,-125.677 0,-69.301 -57.231,-125.681 -127.576,-125.681"
         style="fill:#00c3db;fill-opacity:1;fill-rule:nonzero;stroke:none"
         id="path169"
         inkscape:connector-curvature="0" />
    </g>
    <g
       id="g171"
       transform="matrix(0.7161547,0,0,-0.7161547,853.2671,440.59159)"
       style="fill:#00c3db;fill-opacity:1">
      <path
         d="m 0,0 v -170.171 c 0,-83.578 -56.378,-125.681 -125.685,-125.681 -69.298,0 -125.677,56.38 -125.677,125.681 V 0 h -69.673 v -170.171 c 0,-107.717 87.637,-195.351 195.35,-195.351 50.92,0 102.276,16.059 125.685,59.165 v -21.654 c 0,-69.301 -56.378,-125.681 -125.685,-125.681 -49.214,0 -92.541,28.352 -113.068,70.771 l -66.736,-21.029 -0.041,-0.032 c 29.907,-71.082 99.829,-119.38 179.845,-119.38 107.721,0 195.351,87.634 195.351,195.351 V -157.84 0 Z"
         style="fill:#00c3db;fill-opacity:1;fill-rule:nonzero;stroke:none"
         id="path173"
         inkscape:connector-curvature="0" />
    </g>
  </g>
</svg>
